<mxfile host="app.diagrams.net" agent="Mozilla/5.0 (Macintosh; Intel Mac OS X 10_15_7) AppleWebKit/537.36 (KHTML, like Gecko) Chrome/129.0.0.0 Safari/537.36" version="24.7.17">
  <diagram name="Page-1" id="74e2e168-ea6b-b213-b513-2b3c1d86103e">
    <mxGraphModel dx="2738" dy="1264" grid="1" gridSize="10" guides="1" tooltips="1" connect="1" arrows="1" fold="1" page="1" pageScale="1" pageWidth="1100" pageHeight="850" background="none" math="0" shadow="0">
      <root>
        <mxCell id="0" />
        <mxCell id="1" parent="0" />
        <mxCell id="77e6c97f196da883-1" value="Thesis Flow" style="swimlane;html=1;childLayout=stackLayout;startSize=20;rounded=0;shadow=0;labelBackgroundColor=none;strokeWidth=1;fontFamily=Verdana;fontSize=8;align=center;" parent="1" vertex="1">
          <mxGeometry x="70" y="40" width="640" height="920" as="geometry" />
        </mxCell>
        <mxCell id="77e6c97f196da883-2" value="Student" style="swimlane;html=1;startSize=20;" parent="77e6c97f196da883-1" vertex="1">
          <mxGeometry y="20" width="160" height="900" as="geometry" />
        </mxCell>
        <mxCell id="FH-egheK_HizLAxa6WL1-76" value="Write proposal" style="whiteSpace=wrap;html=1;rounded=1;" parent="77e6c97f196da883-2" vertex="1">
          <mxGeometry x="20" y="151" width="120" height="60" as="geometry" />
        </mxCell>
        <mxCell id="FH-egheK_HizLAxa6WL1-89" value="" style="edgeStyle=orthogonalEdgeStyle;rounded=0;orthogonalLoop=1;jettySize=auto;html=1;" parent="77e6c97f196da883-2" source="FH-egheK_HizLAxa6WL1-86" target="FH-egheK_HizLAxa6WL1-88" edge="1">
          <mxGeometry relative="1" as="geometry" />
        </mxCell>
        <mxCell id="FH-egheK_HizLAxa6WL1-86" value="Write Thesis" style="whiteSpace=wrap;html=1;rounded=1;" parent="77e6c97f196da883-2" vertex="1">
          <mxGeometry x="20" y="392" width="120" height="60" as="geometry" />
        </mxCell>
        <mxCell id="FH-egheK_HizLAxa6WL1-88" value="Present Thesis" style="whiteSpace=wrap;html=1;rounded=1;" parent="77e6c97f196da883-2" vertex="1">
          <mxGeometry x="20" y="508" width="120" height="60" as="geometry" />
        </mxCell>
        <mxCell id="FH-egheK_HizLAxa6WL1-95" value="Submit final thesis (Changes state to &lt;b&gt;SUBMITTED&lt;/b&gt;)" style="whiteSpace=wrap;html=1;rounded=1;" parent="77e6c97f196da883-2" vertex="1">
          <mxGeometry x="20" y="715" width="120" height="60" as="geometry" />
        </mxCell>
        <mxCell id="77e6c97f196da883-3" value="Advisor" style="swimlane;html=1;startSize=20;" parent="77e6c97f196da883-1" vertex="1">
          <mxGeometry x="160" y="20" width="160" height="900" as="geometry" />
        </mxCell>
        <mxCell id="FH-egheK_HizLAxa6WL1-81" value="" style="edgeStyle=orthogonalEdgeStyle;rounded=0;orthogonalLoop=1;jettySize=auto;html=1;" parent="77e6c97f196da883-3" source="FH-egheK_HizLAxa6WL1-78" target="FH-egheK_HizLAxa6WL1-80" edge="1">
          <mxGeometry relative="1" as="geometry" />
        </mxCell>
        <mxCell id="FH-egheK_HizLAxa6WL1-78" value="Give Feedback" style="whiteSpace=wrap;html=1;rounded=1;" parent="77e6c97f196da883-3" vertex="1">
          <mxGeometry x="20" y="151" width="120" height="60" as="geometry" />
        </mxCell>
        <mxCell id="FH-egheK_HizLAxa6WL1-85" value="Yes" style="edgeStyle=orthogonalEdgeStyle;rounded=0;orthogonalLoop=1;jettySize=auto;html=1;" parent="77e6c97f196da883-3" source="FH-egheK_HizLAxa6WL1-80" target="FH-egheK_HizLAxa6WL1-84" edge="1">
          <mxGeometry relative="1" as="geometry" />
        </mxCell>
        <mxCell id="FH-egheK_HizLAxa6WL1-80" value="Sufficient" style="rhombus;whiteSpace=wrap;html=1;rounded=1;" parent="77e6c97f196da883-3" vertex="1">
          <mxGeometry x="40" y="255" width="80" height="80" as="geometry" />
        </mxCell>
        <mxCell id="FH-egheK_HizLAxa6WL1-84" value="Change Thesis State to &lt;b&gt;WRITING&lt;/b&gt;" style="whiteSpace=wrap;html=1;rounded=1;" parent="77e6c97f196da883-3" vertex="1">
          <mxGeometry x="20" y="392" width="120" height="60" as="geometry" />
        </mxCell>
        <mxCell id="FH-egheK_HizLAxa6WL1-92" value="Give Feedback" style="whiteSpace=wrap;html=1;rounded=1;" parent="77e6c97f196da883-3" vertex="1">
          <mxGeometry x="20" y="594" width="120" height="60" as="geometry" />
        </mxCell>
        <mxCell id="FH-egheK_HizLAxa6WL1-100" value="Write assessment (Changes state to &lt;b&gt;ASSESSED&lt;/b&gt;)" style="whiteSpace=wrap;html=1;rounded=1;" parent="77e6c97f196da883-3" vertex="1">
          <mxGeometry x="20" y="715" width="120" height="60" as="geometry" />
        </mxCell>
        <mxCell id="77e6c97f196da883-4" value="Supervisor" style="swimlane;html=1;startSize=20;" parent="77e6c97f196da883-1" vertex="1">
          <mxGeometry x="320" y="20" width="160" height="900" as="geometry" />
        </mxCell>
        <mxCell id="FH-egheK_HizLAxa6WL1-105" value="" style="edgeStyle=orthogonalEdgeStyle;rounded=0;orthogonalLoop=1;jettySize=auto;html=1;entryX=0.5;entryY=0;entryDx=0;entryDy=0;" parent="77e6c97f196da883-4" source="FH-egheK_HizLAxa6WL1-102" target="FH-egheK_HizLAxa6WL1-104" edge="1">
          <mxGeometry relative="1" as="geometry">
            <mxPoint x="80" y="819" as="targetPoint" />
          </mxGeometry>
        </mxCell>
        <mxCell id="FH-egheK_HizLAxa6WL1-102" value="Submit final grade&lt;div&gt;(Changes state to &lt;b&gt;GRADED&lt;/b&gt;)&lt;/div&gt;" style="whiteSpace=wrap;html=1;rounded=1;" parent="77e6c97f196da883-4" vertex="1">
          <mxGeometry x="20" y="715" width="120" height="60" as="geometry" />
        </mxCell>
        <mxCell id="FH-egheK_HizLAxa6WL1-104" value="Submit grade to university (Changes state to &lt;b&gt;FINISHED&lt;/b&gt;)" style="whiteSpace=wrap;html=1;rounded=1;" parent="77e6c97f196da883-4" vertex="1">
          <mxGeometry x="20" y="827" width="120" height="60" as="geometry" />
        </mxCell>
        <mxCell id="77e6c97f196da883-5" value="System" style="swimlane;html=1;startSize=20;" parent="77e6c97f196da883-1" vertex="1">
          <mxGeometry x="480" y="20" width="160" height="900" as="geometry" />
        </mxCell>
        <mxCell id="FH-egheK_HizLAxa6WL1-71" value="Create thesis with state &lt;b&gt;PROPOSAL&lt;/b&gt;" style="whiteSpace=wrap;html=1;rounded=1;" parent="77e6c97f196da883-5" vertex="1">
          <mxGeometry x="20" y="36" width="120" height="60" as="geometry" />
        </mxCell>
        <mxCell id="FH-egheK_HizLAxa6WL1-90" value="Invite students to&lt;div&gt;presentation&lt;/div&gt;" style="whiteSpace=wrap;html=1;rounded=1;" parent="77e6c97f196da883-5" vertex="1">
          <mxGeometry x="20" y="508" width="120" height="60" as="geometry" />
        </mxCell>
        <mxCell id="FH-egheK_HizLAxa6WL1-75" style="edgeStyle=orthogonalEdgeStyle;rounded=0;orthogonalLoop=1;jettySize=auto;html=1;exitX=0.5;exitY=1;exitDx=0;exitDy=0;entryX=0.5;entryY=0;entryDx=0;entryDy=0;" parent="77e6c97f196da883-1" source="FH-egheK_HizLAxa6WL1-71" target="FH-egheK_HizLAxa6WL1-76" edge="1">
          <mxGeometry relative="1" as="geometry">
            <mxPoint x="80" y="202" as="targetPoint" />
          </mxGeometry>
        </mxCell>
        <mxCell id="FH-egheK_HizLAxa6WL1-79" value="" style="edgeStyle=orthogonalEdgeStyle;rounded=0;orthogonalLoop=1;jettySize=auto;html=1;" parent="77e6c97f196da883-1" source="FH-egheK_HizLAxa6WL1-76" target="FH-egheK_HizLAxa6WL1-78" edge="1">
          <mxGeometry relative="1" as="geometry" />
        </mxCell>
        <mxCell id="FH-egheK_HizLAxa6WL1-82" style="edgeStyle=orthogonalEdgeStyle;rounded=0;orthogonalLoop=1;jettySize=auto;html=1;exitX=0;exitY=0.5;exitDx=0;exitDy=0;entryX=0.5;entryY=1;entryDx=0;entryDy=0;" parent="77e6c97f196da883-1" source="FH-egheK_HizLAxa6WL1-80" target="FH-egheK_HizLAxa6WL1-76" edge="1">
          <mxGeometry relative="1" as="geometry" />
        </mxCell>
        <mxCell id="FH-egheK_HizLAxa6WL1-83" value="No" style="edgeLabel;html=1;align=center;verticalAlign=middle;resizable=0;points=[];" parent="FH-egheK_HizLAxa6WL1-82" vertex="1" connectable="0">
          <mxGeometry x="-0.8302" relative="1" as="geometry">
            <mxPoint x="-1" as="offset" />
          </mxGeometry>
        </mxCell>
        <mxCell id="FH-egheK_HizLAxa6WL1-87" value="" style="edgeStyle=orthogonalEdgeStyle;rounded=0;orthogonalLoop=1;jettySize=auto;html=1;" parent="77e6c97f196da883-1" source="FH-egheK_HizLAxa6WL1-84" target="FH-egheK_HizLAxa6WL1-86" edge="1">
          <mxGeometry relative="1" as="geometry" />
        </mxCell>
        <mxCell id="FH-egheK_HizLAxa6WL1-91" value="" style="edgeStyle=orthogonalEdgeStyle;rounded=0;orthogonalLoop=1;jettySize=auto;html=1;" parent="77e6c97f196da883-1" source="FH-egheK_HizLAxa6WL1-88" target="FH-egheK_HizLAxa6WL1-90" edge="1">
          <mxGeometry relative="1" as="geometry" />
        </mxCell>
        <mxCell id="FH-egheK_HizLAxa6WL1-94" style="edgeStyle=orthogonalEdgeStyle;rounded=0;orthogonalLoop=1;jettySize=auto;html=1;exitX=0.5;exitY=1;exitDx=0;exitDy=0;entryX=0;entryY=0.5;entryDx=0;entryDy=0;" parent="77e6c97f196da883-1" source="FH-egheK_HizLAxa6WL1-88" target="FH-egheK_HizLAxa6WL1-92" edge="1">
          <mxGeometry relative="1" as="geometry" />
        </mxCell>
        <mxCell id="FH-egheK_HizLAxa6WL1-97" style="edgeStyle=orthogonalEdgeStyle;rounded=0;orthogonalLoop=1;jettySize=auto;html=1;exitX=0.5;exitY=1;exitDx=0;exitDy=0;entryX=0.5;entryY=0;entryDx=0;entryDy=0;" parent="77e6c97f196da883-1" source="FH-egheK_HizLAxa6WL1-92" target="FH-egheK_HizLAxa6WL1-95" edge="1">
          <mxGeometry relative="1" as="geometry" />
        </mxCell>
        <mxCell id="FH-egheK_HizLAxa6WL1-101" value="" style="edgeStyle=orthogonalEdgeStyle;rounded=0;orthogonalLoop=1;jettySize=auto;html=1;" parent="77e6c97f196da883-1" source="FH-egheK_HizLAxa6WL1-95" target="FH-egheK_HizLAxa6WL1-100" edge="1">
          <mxGeometry relative="1" as="geometry" />
        </mxCell>
        <mxCell id="FH-egheK_HizLAxa6WL1-103" value="" style="edgeStyle=orthogonalEdgeStyle;rounded=0;orthogonalLoop=1;jettySize=auto;html=1;" parent="77e6c97f196da883-1" source="FH-egheK_HizLAxa6WL1-100" target="FH-egheK_HizLAxa6WL1-102" edge="1">
          <mxGeometry relative="1" as="geometry" />
        </mxCell>
      </root>
    </mxGraphModel>
  </diagram>
</mxfile>
